Coordinates
version=1
nRows=19
nColumns=24
inDegrees=yes

Units are S.I. units (second, meters, Newtons, ...)
Angles are in degrees.

endheader
time	pelvis_tilt	pelvis_list	pelvis_rotation	pelvis_tx	pelvis_ty	pelvis_tz	hip_flexion_r	hip_adduction_r	hip_rotation_r	knee_angle_r	ankle_angle_r	subtalar_angle_r	mtp_angle_r	hip_flexion_l	hip_adduction_l	hip_rotation_l	knee_angle_l	ankle_angle_l	subtalar_angle_l	mtp_angle_l	lumbar_extension	lumbar_bending	lumbar_rotation
      2.72000000	     51.08216388	    -14.12122682	     -2.06104774	      0.43333800	      1.02009677	     -0.34906461	     27.97748444	      1.04722623	      5.41179457	    -56.46788194	     10.32240580	     45.78592939	      0.00000000	     21.52883798	    -26.21917750	      9.53786504	    -67.54279041	     25.05937109	     30.78820095	      0.00000000	      0.00000000	      0.00000000	      0.00000000
      2.73000000	     51.09582057	    -14.11507598	     -2.05389037	      0.43330831	      1.02008188	     -0.34908328	     27.94891180	      1.00518226	      5.41969542	    -56.83680939	     10.42324423	     45.79025025	      0.00000000	     21.51514046	    -26.20679366	      9.54585925	    -67.54027853	     25.06011641	     30.78964493	      0.00000000	      0.00000000	      0.00000000	      0.00000000
      2.74000000	     51.11480757	    -14.10627537	     -2.04115635	      0.43326201	      1.02009100	     -0.34911361	     27.91726971	      0.96476847	      5.42800632	    -57.19146599	     10.51452741	     45.81373047	      0.00000000	     21.49883346	    -26.18925789	      9.55942796	    -67.53726462	     25.05962083	     30.79009678	      0.00000000	      0.00000000	      0.00000000	      0.00000000
      2.75000000	     51.13478522	    -14.09653597	     -2.02599959	      0.43322059	      1.02011641	     -0.34914127	     27.88785640	      0.92767376	      5.43719140	    -57.53540346	     10.59396313	     45.85168174	      0.00000000	     21.48260235	    -26.17000648	      9.57655083	    -67.53546615	     25.05870461	     30.78990963	      0.00000000	      0.00000000	      0.00000000	      0.00000000
      2.76000000	     51.15141607	    -14.08833363	     -2.01151236	      0.43319802	      1.02012757	     -0.34915597	     27.86367509	      0.89338299	      5.44820486	    -57.87133368	     10.66169133	     45.89798706	      0.00000000	     21.46947645	    -26.15239254	      9.59488971	    -67.53639376	     25.05825897	     30.78959716	      0.00000000	      0.00000000	      0.00000000	      0.00000000
      2.77000000	     51.16237953	    -14.08332836	     -1.99984529	      0.43319624	      1.02011577	     -0.34916381	     27.84595859	      0.86082118	      5.46184274	    -58.20002492	     10.72002741	     45.94587861	      0.00000000	     21.46190610	    -26.13879730	      9.61246661	    -67.54087727	     25.05899611	     30.78973052	      0.00000000	      0.00000000	      0.00000000	      0.00000000
      2.78000000	     51.16762772	    -14.08147677	     -1.99181458	      0.43320854	      1.02009701	     -0.34917250	     27.83469123	      0.82981467	      5.47811747	    -58.52033972	     10.77245836	     45.98854436	      0.00000000	     21.46082577	    -26.13022308	      9.62802328	    -67.54885225	     25.06127342	     30.79082896	      0.00000000	      0.00000000	      0.00000000	      0.00000000
      2.79000000	     51.16840229	    -14.08156218	     -1.98706279	      0.43322673	      1.02008121	     -0.34917570	     27.82877110	      0.80113245	      5.49605434	    -58.83020684	     10.82232060	     46.01961061	      0.00000000	     21.46533883	    -26.12637780	      9.64097198	    -67.55944407	     25.06505063	     30.79324959	      0.00000000	      0.00000000	      0.00000000	      0.00000000
      2.80000000	     51.16655210	    -14.08236194	     -1.98453224	      0.43324448	      1.02006290	     -0.34916226	     27.82659674	      0.77564856	      5.51398748	    -59.12760219	     10.87167849	     46.03362518	      0.00000000	     21.47318357	    -26.12609233	      9.65108826	    -67.57135857	     25.06995283	     30.79709654	      0.00000000	      0.00000000	      0.00000000	      0.00000000
      2.81000000	     51.16410145	    -14.08339847	     -1.98302660	      0.43325805	      1.02003710	     -0.34913575	     27.82669017	      0.75350481	      5.53007153	    -59.41112561	     10.92075653	     46.02664295	      0.00000000	     21.48161674	    -26.12788343	      9.65819919	    -67.58342860	     25.07538439	     30.80217221	      0.00000000	      0.00000000	      0.00000000	      0.00000000
      2.82000000	     51.16249633	    -14.08481757	     -1.98176170	      0.43326815	      1.02001062	     -0.34911467	     27.82760762	      0.73376541	      5.54272373	    -59.68023013	     10.96804596	     45.99687301	      0.00000000	     21.48833021	    -26.13051144	      9.66214264	    -67.59501221	     25.08065957	     30.80798560	      0.00000000	      0.00000000	      0.00000000	      0.00000000
      2.83000000	     51.16212178	    -14.08669735	     -1.98059561	      0.43327980	      1.01999446	     -0.34911165	     27.82777291	      0.71487238	      5.55089107	    -59.93496960	     11.01098282	     45.94518729	      0.00000000	     21.49209276	    -26.13325847	      9.66298748	    -67.60602294	     25.08514670	     30.81382189	      0.00000000	      0.00000000	      0.00000000	      0.00000000
      2.84000000	     51.16277210	    -14.08856126	     -1.97968142	      0.43329631	      1.01999042	     -0.34912163	     27.82612641	      0.69560528	      5.55420548	    -60.17520246	     11.04690710	     45.87525454	      0.00000000	     21.49287476	    -26.13575754	      9.66119431	    -67.61664132	     25.08841798	     30.81886365	      0.00000000	      0.00000000	      0.00000000	      0.00000000
      2.85000000	     51.16428892	    -14.08963120	     -1.97901978	      0.43331573	      1.01999078	     -0.34913111	     27.82278450	      0.67554160	      5.55314489	    -60.39986522	     11.07394328	     45.79318351	      0.00000000	     21.49150632	    -26.13764043	      9.65756102	    -67.62694609	     25.09036396	     30.82233937	      0.00000000	      0.00000000	      0.00000000	      0.00000000
      2.86000000	     51.16657596	    -14.08937778	     -1.97836524	      0.43333453	      1.01998896	     -0.34913306	     27.81875953	      0.65478388	      5.54909546	    -60.60690445	     11.09153549	     45.70670836	      0.00000000	     21.48915017	    -26.13841442	      9.65303424	    -67.63671407	     25.09122306	     30.82367443	      0.00000000	      0.00000000	      0.00000000	      0.00000000
      2.87000000	     51.16928193	    -14.08777367	     -1.97739280	      0.43335018	      1.01998612	     -0.34913169	     27.81511090	      0.63357733	      5.54410458	    -60.79379155	     11.10054484	     45.62403392	      0.00000000	     21.48682724	    -26.13764608	      9.64843076	    -67.64548518	     25.09149535	     30.82262715	      0.00000000	      0.00000000	      0.00000000	      0.00000000
      2.88000000	     51.17168837	    -14.08525559	     -1.97593130	      0.43336109	      1.01998597	     -0.34913521	     27.81234173	      0.61223478	      5.54029994	    -60.95814900	     11.10294727	     45.55252930	      0.00000000	     21.48511969	    -26.13521817	      9.64408935	    -67.65276051	     25.09176792	     30.81938343	      0.00000000	      0.00000000	      0.00000000	      0.00000000
      2.89000000	     51.17298834	    -14.08241109	     -1.97419959	      0.43336746	      1.01998741	     -0.34914660	     27.81037666	      0.59135776	      5.53917846	    -61.09812362	     11.10123330	     45.49752690	      0.00000000	     21.48414310	    -26.13150793	      9.63966288	    -67.65815682	     25.09252583	     30.81456803	      0.00000000	      0.00000000	      0.00000000	      0.00000000
      2.90000000	     51.17272212	    -14.07955433	     -1.97297417	      0.43337220	      1.01998770	     -0.34916132	     27.80889872	      0.57199353	      5.54116923	    -61.21247291	     11.09765629	     45.46147420	      0.00000000	     21.48374694	    -26.12745903	      9.63429293	    -67.66148295	     25.09401196	     30.80914139	      0.00000000	      0.00000000	      0.00000000	      0.00000000
